<mxfile host="Electron" modified="2023-06-24T16:40:15.587Z" agent="Mozilla/5.0 (Macintosh; Intel Mac OS X 10_15_7) AppleWebKit/537.36 (KHTML, like Gecko) draw.io/21.3.7 Chrome/112.0.5615.204 Electron/24.5.0 Safari/537.36" etag="vHsRRl5K6reV09HKjfuL" version="21.3.7" type="device">
  <diagram id="OUcwJTHvT7vjzToPtKVa" name="Página-1">
    <mxGraphModel dx="1306" dy="947" grid="1" gridSize="10" guides="1" tooltips="1" connect="1" arrows="1" fold="1" page="1" pageScale="1" pageWidth="827" pageHeight="1169" math="0" shadow="0">
      <root>
        <mxCell id="0" />
        <mxCell id="1" parent="0" />
        <mxCell id="7" style="edgeStyle=none;html=1;entryX=0.5;entryY=0;entryDx=0;entryDy=0;" parent="1" source="3" target="9" edge="1">
          <mxGeometry relative="1" as="geometry">
            <mxPoint x="554" y="320" as="targetPoint" />
          </mxGeometry>
        </mxCell>
        <mxCell id="47" style="edgeStyle=none;html=1;exitX=0;exitY=0.5;exitDx=0;exitDy=0;entryX=1;entryY=0.5;entryDx=0;entryDy=0;entryPerimeter=0;" parent="1" source="3" target="50" edge="1">
          <mxGeometry relative="1" as="geometry">
            <mxPoint x="464" y="200" as="targetPoint" />
          </mxGeometry>
        </mxCell>
        <mxCell id="3" value="¿Quedan &lt;br&gt;categorías en el &lt;br&gt;datastet?" style="shape=rhombus;html=1;dashed=0;whitespace=wrap;perimeter=rhombusPerimeter;" parent="1" vertex="1">
          <mxGeometry x="501" y="150" width="106" height="100" as="geometry" />
        </mxCell>
        <mxCell id="5" style="edgeStyle=none;html=1;entryX=0.5;entryY=0;entryDx=0;entryDy=0;exitX=0.5;exitY=0.5;exitDx=0;exitDy=15;exitPerimeter=0;" parent="1" source="29" target="3" edge="1">
          <mxGeometry relative="1" as="geometry">
            <mxPoint x="554" y="60" as="sourcePoint" />
          </mxGeometry>
        </mxCell>
        <mxCell id="8" value="SÍ" style="text;html=1;align=center;verticalAlign=middle;resizable=0;points=[];autosize=1;strokeColor=none;fillColor=none;" parent="1" vertex="1">
          <mxGeometry x="551" y="240" width="30" height="30" as="geometry" />
        </mxCell>
        <mxCell id="Uz-GwiQmdN32-8PwC0Ot-56" value="" style="edgeStyle=orthogonalEdgeStyle;rounded=0;orthogonalLoop=1;jettySize=auto;html=1;" parent="1" source="9" target="Uz-GwiQmdN32-8PwC0Ot-55" edge="1">
          <mxGeometry relative="1" as="geometry" />
        </mxCell>
        <mxCell id="aQGlYEVy6mHXygDbfqy5-50" style="edgeStyle=orthogonalEdgeStyle;rounded=0;orthogonalLoop=1;jettySize=auto;html=1;entryX=1;entryY=0.5;entryDx=0;entryDy=0;" edge="1" parent="1" source="9" target="3">
          <mxGeometry relative="1" as="geometry">
            <Array as="points">
              <mxPoint x="660" y="373" />
              <mxPoint x="660" y="200" />
            </Array>
          </mxGeometry>
        </mxCell>
        <mxCell id="9" value="&lt;font style=&quot;font-size: 12px;&quot;&gt;¿Quedan &lt;br&gt;subcategorías?&lt;br&gt;&lt;/font&gt;" style="shape=rhombus;html=1;dashed=0;whitespace=wrap;perimeter=rhombusPerimeter;" parent="1" vertex="1">
          <mxGeometry x="501" y="320" width="109" height="105" as="geometry" />
        </mxCell>
        <mxCell id="14" value="NO" style="text;html=1;align=center;verticalAlign=middle;resizable=0;points=[];autosize=1;strokeColor=none;fillColor=none;" parent="1" vertex="1">
          <mxGeometry x="607" y="350" width="40" height="30" as="geometry" />
        </mxCell>
        <mxCell id="19" value="SÍ" style="text;html=1;align=center;verticalAlign=middle;resizable=0;points=[];autosize=1;strokeColor=none;fillColor=none;" parent="1" vertex="1">
          <mxGeometry x="551" y="420" width="30" height="30" as="geometry" />
        </mxCell>
        <mxCell id="29" value="INICIO" style="html=1;dashed=0;whitespace=wrap;shape=mxgraph.dfd.start" parent="1" vertex="1">
          <mxGeometry x="514" y="80" width="80" height="30" as="geometry" />
        </mxCell>
        <mxCell id="48" value="NO" style="text;html=1;align=center;verticalAlign=middle;resizable=0;points=[];autosize=1;strokeColor=none;fillColor=none;" parent="1" vertex="1">
          <mxGeometry x="471" y="175" width="40" height="30" as="geometry" />
        </mxCell>
        <mxCell id="50" value="FIN" style="html=1;dashed=0;whitespace=wrap;shape=mxgraph.dfd.start" parent="1" vertex="1">
          <mxGeometry x="384" y="185" width="80" height="30" as="geometry" />
        </mxCell>
        <mxCell id="Uz-GwiQmdN32-8PwC0Ot-60" style="edgeStyle=orthogonalEdgeStyle;rounded=0;orthogonalLoop=1;jettySize=auto;html=1;entryX=1;entryY=0.5;entryDx=0;entryDy=0;exitX=1;exitY=0.5;exitDx=0;exitDy=0;" parent="1" source="Uz-GwiQmdN32-8PwC0Ot-55" target="3" edge="1">
          <mxGeometry relative="1" as="geometry">
            <Array as="points">
              <mxPoint x="660" y="530" />
              <mxPoint x="660" y="200" />
            </Array>
          </mxGeometry>
        </mxCell>
        <mxCell id="Uz-GwiQmdN32-8PwC0Ot-55" value="Crear categoría/subcategoría" style="whiteSpace=wrap;html=1;dashed=0;" parent="1" vertex="1">
          <mxGeometry x="482.75" y="500" width="145.5" height="60" as="geometry" />
        </mxCell>
        <mxCell id="Uz-GwiQmdN32-8PwC0Ot-61" value="NO" style="text;html=1;align=center;verticalAlign=middle;resizable=0;points=[];autosize=1;strokeColor=none;fillColor=none;" parent="1" vertex="1">
          <mxGeometry x="622" y="507" width="40" height="30" as="geometry" />
        </mxCell>
      </root>
    </mxGraphModel>
  </diagram>
</mxfile>
